<svg width="24" height="24" viewBox="0 0 24 24" fill="white" xmlns="http://www.w3.org/2000/svg">
<path d="M11.9233 2.19753C10.9063 2.18553 9.91089 2.52154 9.20429 3.22854L2.26679 10.3216C1.96839 10.6266 1.88849 11.0655 2.07929 11.4475L2.98549 13.2595L2.95429 18.9785C2.95419 20.1095 3.86049 21.0095 4.98549 21.0095H9.17299C10.1703 21.0095 10.9853 20.1945 10.9853 19.1975V14.8845C10.9853 14.4005 11.3763 14.0095 11.8603 14.0095H12.1103C12.5943 14.0095 12.9853 14.4005 12.9853 14.8845V19.1975C12.9853 20.1945 13.8003 21.0095 14.7983 21.0095H18.9853C20.1103 21.0095 21.0163 20.1035 21.0163 18.9785L20.9853 13.2595L21.8913 11.4475C22.0843 11.0625 22.0083 10.5955 21.7043 10.2905C21.4443 10.0305 15.3293 3.91555 14.7043 3.29055C13.9793 2.56555 12.9393 2.20853 11.9233 2.19753ZM11.9233 4.19753C12.4263 4.20753 12.9283 4.39054 13.2663 4.72854C13.8473 5.30853 18.8023 10.2635 19.7663 11.2285L19.0793 12.5716C19.0093 12.7126 18.9843 12.8525 18.9853 13.0095L19.0163 18.9785C19.0163 18.9925 19.0063 19.0095 18.9853 19.0095H14.9853V14.8845C14.9853 13.2955 13.6993 12.0095 12.1103 12.0095H11.8603C10.2713 12.0095 8.98549 13.2955 8.98549 14.8845V19.0095H4.98549C4.96509 19.0095 4.95429 18.9985 4.95429 18.9785L4.98549 13.0095C4.98649 12.8525 4.96209 12.7126 4.89179 12.5716L4.20429 11.1975L10.6103 4.63454C10.9193 4.32554 11.4193 4.18653 11.9233 4.19753Z" fill="white"/>
</svg>
